<mxfile host="Electron" modified="2025-07-29T23:12:31.561Z" agent="Mozilla/5.0 (Windows NT 10.0; Win64; x64) AppleWebKit/537.36 (KHTML, like Gecko) draw.io/24.1.0 Chrome/120.0.6099.109 Electron/28.1.0 Safari/537.36" etag="hI5ILlsCHGfqcVNPqDZ7" version="24.1.0" type="device">
  <diagram name="Page-1" id="losCQIWsUPL6BQvRrZY8">
    <mxGraphModel dx="3050" dy="2410" grid="1" gridSize="10" guides="1" tooltips="1" connect="1" arrows="1" fold="1" page="1" pageScale="1" pageWidth="850" pageHeight="1100" math="0" shadow="0">
      <root>
        <mxCell id="0" />
        <mxCell id="1" parent="0" />
        <mxCell id="tDLZp0Fif0_lgKfjZl7a-2" value="" style="whiteSpace=wrap;html=1;fillColor=none;strokeWidth=6;fontColor=#ffffff;strokeColor=#6F0000;" vertex="1" parent="1">
          <mxGeometry x="-10" y="370" width="820" height="630" as="geometry" />
        </mxCell>
        <mxCell id="CTleCRR41d6oCslq1Kva-1" value="NF Service Consumer" style="rounded=0;whiteSpace=wrap;html=1;fontSize=18;" parent="1" vertex="1">
          <mxGeometry x="310" y="120" width="140" height="100" as="geometry" />
        </mxCell>
        <mxCell id="fRd_JruuX_oglptQCU-_-1" value="NF Service Consumer" style="rounded=0;whiteSpace=wrap;html=1;fontSize=18;" parent="1" vertex="1">
          <mxGeometry x="50" y="850" width="140" height="100" as="geometry" />
        </mxCell>
        <mxCell id="fRd_JruuX_oglptQCU-_-2" value="NF Service Consumer" style="rounded=0;whiteSpace=wrap;html=1;fontSize=18;" parent="1" vertex="1">
          <mxGeometry x="100" y="120" width="140" height="100" as="geometry" />
        </mxCell>
        <mxCell id="fRd_JruuX_oglptQCU-_-3" value="NF Service Consumer" style="rounded=0;whiteSpace=wrap;html=1;fontSize=18;" parent="1" vertex="1">
          <mxGeometry x="530" y="120" width="140" height="100" as="geometry" />
        </mxCell>
        <mxCell id="fRd_JruuX_oglptQCU-_-4" value="NF Service Consumer" style="rounded=0;whiteSpace=wrap;html=1;fontSize=18;" parent="1" vertex="1">
          <mxGeometry x="280" y="680" width="140" height="100" as="geometry" />
        </mxCell>
        <mxCell id="fRd_JruuX_oglptQCU-_-5" value="NF Service Consumer" style="rounded=0;whiteSpace=wrap;html=1;fontSize=18;" parent="1" vertex="1">
          <mxGeometry x="280" y="850" width="140" height="100" as="geometry" />
        </mxCell>
        <mxCell id="fRd_JruuX_oglptQCU-_-6" value="NF Service Consumer" style="rounded=0;whiteSpace=wrap;html=1;fontSize=18;" parent="1" vertex="1">
          <mxGeometry x="50" y="680" width="140" height="100" as="geometry" />
        </mxCell>
        <mxCell id="fRd_JruuX_oglptQCU-_-7" value="NF Service Consumer" style="rounded=0;whiteSpace=wrap;html=1;fontSize=18;" parent="1" vertex="1">
          <mxGeometry x="510" y="680" width="140" height="100" as="geometry" />
        </mxCell>
        <mxCell id="fRd_JruuX_oglptQCU-_-10" value="NF Service Consumer" style="rounded=0;whiteSpace=wrap;html=1;fontSize=18;" parent="1" vertex="1">
          <mxGeometry x="310" y="-40" width="140" height="100" as="geometry" />
        </mxCell>
        <mxCell id="fRd_JruuX_oglptQCU-_-11" value="NF Service Consumer" style="rounded=0;whiteSpace=wrap;html=1;fontSize=18;" parent="1" vertex="1">
          <mxGeometry x="100" y="-40" width="140" height="100" as="geometry" />
        </mxCell>
        <mxCell id="fRd_JruuX_oglptQCU-_-12" value="NF Service Consumer" style="rounded=0;whiteSpace=wrap;html=1;fontSize=18;" parent="1" vertex="1">
          <mxGeometry x="530" y="-40" width="140" height="100" as="geometry" />
        </mxCell>
        <mxCell id="fRd_JruuX_oglptQCU-_-13" value="NF Service Consumer" style="rounded=0;whiteSpace=wrap;html=1;fontSize=18;" parent="1" vertex="1">
          <mxGeometry x="510" y="850" width="140" height="100" as="geometry" />
        </mxCell>
        <mxCell id="tDLZp0Fif0_lgKfjZl7a-3" value="Our Core 5g" style="text;html=1;align=center;verticalAlign=middle;resizable=0;points=[];autosize=1;strokeColor=none;fillColor=none;fontSize=19;" vertex="1" parent="1">
          <mxGeometry x="670" y="385" width="130" height="40" as="geometry" />
        </mxCell>
        <mxCell id="tDLZp0Fif0_lgKfjZl7a-4" value="SCP" style="whiteSpace=wrap;html=1;fontSize=29;" vertex="1" parent="1">
          <mxGeometry x="320" y="470" width="120" height="60" as="geometry" />
        </mxCell>
      </root>
    </mxGraphModel>
  </diagram>
</mxfile>
